<svg id="svg" version="1.1" width="400" height="565.8064516129032" viewBox="0 0 400 565.8064516129032" xmlns="http://www.w3.org/2000/svg" xmlns:xlink="http://www.w3.org/1999/xlink" ><g id="svgg"><path id="path0" d="M239.762 74.192 C 238.301 74.347,236.936 74.578,236.729 74.706 C 236.478 74.860,236.439 74.797,236.612 74.518 C 236.820 74.181,236.526 74.149,235.129 74.356 C 234.171 74.499,232.516 74.665,231.452 74.725 C 230.387 74.786,228.863 74.903,228.065 74.987 C 225.307 75.275,223.704 75.453,222.258 75.630 C 221.460 75.728,220.343 75.809,219.776 75.809 C 219.209 75.809,218.659 75.949,218.554 76.120 C 218.448 76.291,217.950 76.348,217.446 76.247 C 216.928 76.144,216.434 76.219,216.310 76.420 C 216.189 76.616,215.751 76.692,215.338 76.588 C 214.925 76.484,214.489 76.557,214.370 76.749 C 214.251 76.942,213.816 77.014,213.403 76.911 C 212.989 76.807,212.554 76.879,212.435 77.072 C 212.316 77.264,211.880 77.337,211.467 77.233 C 211.054 77.129,210.618 77.202,210.499 77.394 C 210.380 77.587,209.945 77.659,209.532 77.556 C 209.118 77.452,208.691 77.510,208.583 77.686 C 208.475 77.861,208.113 77.932,207.778 77.845 C 207.443 77.757,207.080 77.830,206.972 78.006 C 206.863 78.182,206.500 78.255,206.165 78.167 C 205.830 78.080,205.468 78.152,205.359 78.329 C 205.250 78.505,204.887 78.578,204.552 78.490 C 204.218 78.402,203.855 78.475,203.746 78.651 C 203.637 78.828,203.274 78.900,202.939 78.813 C 202.605 78.725,202.242 78.798,202.133 78.974 C 202.024 79.150,201.645 79.218,201.290 79.126 C 200.935 79.033,200.645 79.106,200.645 79.287 C 200.645 79.469,200.371 79.545,200.036 79.458 C 199.702 79.370,199.339 79.443,199.230 79.619 C 199.121 79.795,198.741 79.864,198.387 79.771 C 198.032 79.678,197.742 79.751,197.742 79.932 C 197.742 80.114,197.452 80.186,197.097 80.093 C 196.742 80.001,196.452 80.073,196.452 80.255 C 196.452 80.436,196.161 80.509,195.806 80.416 C 195.452 80.323,195.161 80.396,195.161 80.577 C 195.161 80.759,194.871 80.831,194.516 80.739 C 194.161 80.646,193.871 80.718,193.871 80.900 C 193.871 81.081,193.581 81.154,193.226 81.061 C 192.871 80.968,192.581 81.041,192.581 81.222 C 192.581 81.404,192.290 81.477,191.935 81.384 C 191.581 81.291,191.290 81.341,191.290 81.495 C 191.289 81.648,190.819 81.807,190.244 81.848 C 189.669 81.889,189.154 82.055,189.100 82.217 C 189.046 82.379,188.718 82.438,188.372 82.347 C 188.025 82.257,187.742 82.340,187.742 82.533 C 187.742 82.725,187.524 82.799,187.258 82.697 C 186.992 82.595,186.774 82.636,186.773 82.788 C 186.773 82.940,186.308 83.081,185.739 83.102 C 185.171 83.123,184.654 83.296,184.590 83.487 C 184.527 83.678,184.266 83.755,184.011 83.657 C 183.757 83.559,183.548 83.626,183.548 83.806 C 183.548 83.986,183.235 84.051,182.853 83.951 C 182.335 83.816,182.224 83.877,182.419 84.193 C 182.593 84.474,182.555 84.538,182.306 84.384 C 181.847 84.101,175.459 86.151,175.681 86.510 C 175.769 86.651,175.615 86.680,175.339 86.575 C 175.063 86.469,174.839 86.551,174.839 86.759 C 174.839 86.966,174.718 87.060,174.569 86.968 C 174.197 86.738,171.925 87.465,172.105 87.756 C 172.186 87.886,172.071 87.985,171.851 87.977 C 170.847 87.941,170.299 88.088,170.461 88.351 C 170.559 88.508,170.458 88.630,170.238 88.622 C 169.234 88.586,168.686 88.733,168.848 88.996 C 168.946 89.153,168.845 89.276,168.626 89.268 C 167.522 89.228,167.075 89.381,167.289 89.727 C 167.423 89.945,167.378 90.013,167.180 89.890 C 166.993 89.775,166.370 89.879,165.794 90.121 C 165.218 90.363,164.877 90.629,165.035 90.711 C 165.193 90.794,165.150 90.821,164.940 90.772 C 164.203 90.597,161.879 91.699,162.326 92.010 C 162.613 92.211,162.543 92.250,162.097 92.138 C 161.693 92.036,159.940 92.760,157.419 94.068 C 155.202 95.219,153.649 96.083,153.968 95.988 C 154.327 95.880,154.469 95.944,154.339 96.155 C 154.223 96.342,153.912 96.413,153.648 96.311 C 153.047 96.081,151.257 97.104,151.519 97.528 C 151.625 97.701,151.554 97.743,151.360 97.623 C 151.027 97.418,148.944 98.452,149.114 98.738 C 149.158 98.811,149.136 98.837,149.065 98.796 C 148.745 98.610,146.500 100.140,146.676 100.424 C 146.785 100.601,146.733 100.658,146.561 100.551 C 146.189 100.322,143.471 102.049,143.708 102.364 C 143.798 102.483,143.779 102.513,143.667 102.431 C 143.303 102.162,142.234 102.925,142.460 103.292 C 142.584 103.492,142.534 103.558,142.346 103.441 C 142.162 103.328,141.595 103.548,141.086 103.931 C 139.914 104.812,139.352 105.350,139.969 104.997 C 140.275 104.823,140.347 104.862,140.189 105.117 C 140.060 105.324,139.835 105.420,139.689 105.330 C 139.542 105.239,139.080 105.465,138.663 105.833 C 138.245 106.200,138.107 106.395,138.356 106.265 C 138.657 106.109,138.731 106.156,138.576 106.407 C 138.448 106.615,138.227 106.713,138.086 106.626 C 137.946 106.539,137.266 106.989,136.576 107.625 C 135.887 108.261,135.613 108.584,135.968 108.342 C 136.559 107.940,136.576 107.950,136.173 108.464 C 135.931 108.773,135.607 108.947,135.452 108.851 C 135.070 108.615,130.618 113.104,130.723 113.621 C 130.769 113.847,130.633 113.999,130.422 113.958 C 129.908 113.858,128.663 115.470,128.925 115.894 C 129.039 116.078,128.981 116.135,128.796 116.021 C 128.340 115.739,127.627 116.650,127.925 117.132 C 128.067 117.362,128.028 117.435,127.828 117.311 C 127.373 117.030,126.659 117.940,126.958 118.423 C 127.099 118.651,127.060 118.725,126.863 118.604 C 126.483 118.368,124.839 120.692,124.839 121.466 C 124.839 122.289,125.485 123.263,125.872 123.024 C 126.068 122.903,126.139 122.949,126.029 123.127 C 125.738 123.597,127.722 126.176,128.174 125.917 C 128.380 125.799,128.445 125.818,128.318 125.958 C 127.977 126.336,128.682 127.474,129.098 127.217 C 129.294 127.096,129.364 127.143,129.254 127.321 C 128.964 127.790,130.947 130.370,131.400 130.111 C 131.606 129.993,131.670 130.012,131.544 130.152 C 131.203 130.530,131.908 131.668,132.324 131.411 C 132.520 131.290,132.590 131.336,132.480 131.514 C 132.190 131.984,134.173 134.563,134.626 134.304 C 134.832 134.187,134.896 134.205,134.769 134.346 C 134.428 134.723,135.134 135.861,135.550 135.604 C 135.746 135.483,135.816 135.530,135.706 135.708 C 135.416 136.178,137.399 138.757,137.851 138.498 C 138.057 138.380,138.122 138.399,137.995 138.539 C 137.654 138.917,138.360 140.055,138.776 139.798 C 138.972 139.677,139.042 139.723,138.932 139.902 C 138.642 140.371,140.625 142.950,141.077 142.691 C 141.283 142.574,141.348 142.592,141.221 142.733 C 140.880 143.110,141.586 144.248,142.002 143.991 C 142.197 143.870,142.268 143.917,142.158 144.095 C 141.867 144.565,143.851 147.144,144.303 146.885 C 144.509 146.767,144.574 146.786,144.447 146.926 C 144.106 147.304,144.812 148.442,145.227 148.185 C 145.423 148.064,145.493 148.111,145.383 148.289 C 145.093 148.758,147.077 151.337,147.529 151.079 C 147.735 150.961,147.799 150.979,147.673 151.120 C 147.332 151.497,148.037 152.636,148.453 152.379 C 148.649 152.257,148.719 152.304,148.609 152.482 C 148.319 152.952,150.302 155.531,150.755 155.272 C 150.961 155.154,151.025 155.173,150.898 155.313 C 150.557 155.691,151.263 156.829,151.679 156.572 C 151.875 156.451,151.945 156.498,151.835 156.676 C 151.545 157.145,153.528 159.724,153.980 159.466 C 154.186 159.348,154.251 159.366,154.124 159.507 C 153.783 159.885,154.489 161.023,154.905 160.766 C 155.101 160.645,155.171 160.691,155.061 160.869 C 154.771 161.339,156.754 163.918,157.206 163.659 C 157.412 163.541,157.477 163.560,157.350 163.700 C 157.009 164.078,157.715 165.216,158.131 164.959 C 158.326 164.838,158.397 164.885,158.287 165.063 C 157.996 165.532,159.980 168.112,160.432 167.853 C 160.638 167.735,160.703 167.753,160.576 167.894 C 160.256 168.249,160.928 169.418,161.314 169.179 C 161.487 169.072,161.608 169.104,161.583 169.250 C 161.431 170.126,161.677 170.357,162.661 170.262 C 163.238 170.207,163.679 169.997,163.642 169.796 C 163.604 169.595,163.822 169.450,164.126 169.473 C 164.429 169.497,164.638 169.324,164.589 169.089 C 164.540 168.854,164.649 168.754,164.830 168.866 C 165.248 169.124,166.531 168.251,166.208 167.928 C 166.076 167.796,166.113 167.729,166.290 167.779 C 167.005 167.980,168.170 167.363,167.704 167.031 C 167.356 166.783,167.380 166.752,167.814 166.891 C 168.119 166.989,168.990 166.699,169.749 166.246 C 170.508 165.793,170.867 165.507,170.548 165.611 C 170.185 165.728,170.046 165.671,170.177 165.458 C 170.293 165.271,170.594 165.197,170.847 165.293 C 171.533 165.557,174.928 163.813,174.430 163.453 C 174.157 163.255,174.207 163.221,174.590 163.344 C 175.274 163.563,177.833 162.466,177.499 162.097 C 177.366 161.951,177.416 161.922,177.609 162.032 C 178.084 162.302,182.646 160.502,182.340 160.164 C 182.206 160.017,182.259 159.989,182.457 160.102 C 182.855 160.329,187.843 158.758,188.005 158.355 C 188.061 158.215,188.315 158.181,188.569 158.278 C 188.824 158.376,189.033 158.332,189.033 158.180 C 189.033 158.028,189.499 157.886,190.067 157.866 C 190.635 157.845,191.150 157.679,191.211 157.497 C 191.272 157.314,191.605 157.239,191.951 157.330 C 192.297 157.420,192.581 157.337,192.581 157.145 C 192.581 156.952,192.798 156.878,193.065 156.980 C 193.331 157.082,193.548 157.019,193.548 156.839 C 193.548 156.659,193.822 156.584,194.157 156.671 C 194.492 156.759,194.860 156.679,194.974 156.494 C 195.088 156.309,195.380 156.233,195.623 156.326 C 195.865 156.419,196.151 156.354,196.258 156.181 C 196.365 156.008,196.742 155.943,197.097 156.036 C 197.452 156.128,197.742 156.056,197.742 155.874 C 197.742 155.693,198.016 155.616,198.351 155.703 C 198.686 155.791,199.049 155.718,199.157 155.542 C 199.266 155.366,199.629 155.293,199.964 155.381 C 200.299 155.468,200.670 155.382,200.790 155.188 C 200.909 154.995,201.345 154.921,201.759 155.025 C 202.172 155.129,202.603 155.063,202.717 154.879 C 202.831 154.695,203.137 154.626,203.397 154.726 C 203.658 154.826,204.125 154.797,204.435 154.662 C 204.746 154.526,205.435 154.374,205.968 154.323 C 206.500 154.272,207.516 154.160,208.226 154.073 C 213.081 153.478,218.213 153.315,221.086 153.662 C 222.723 153.860,223.241 153.834,223.073 153.562 C 222.936 153.341,223.341 153.400,224.080 153.709 C 224.759 153.993,225.657 154.139,226.075 154.034 C 226.494 153.929,227.038 154.011,227.285 154.216 C 227.532 154.421,227.972 154.497,228.263 154.385 C 228.553 154.274,228.989 154.346,229.230 154.547 C 229.472 154.747,229.884 154.828,230.147 154.728 C 230.410 154.627,230.718 154.696,230.833 154.881 C 230.947 155.066,231.314 155.146,231.649 155.058 C 231.984 154.971,232.258 155.048,232.258 155.229 C 232.258 155.411,232.548 155.483,232.903 155.390 C 233.258 155.298,233.548 155.370,233.548 155.552 C 233.548 155.733,233.839 155.806,234.194 155.713 C 234.548 155.620,234.839 155.691,234.839 155.871 C 234.839 156.051,235.056 156.115,235.323 156.012 C 235.589 155.910,235.806 155.983,235.806 156.174 C 235.806 156.365,236.024 156.437,236.290 156.335 C 236.556 156.233,236.774 156.305,236.774 156.496 C 236.774 156.692,237.016 156.750,237.329 156.630 C 237.634 156.513,237.781 156.521,237.655 156.646 C 237.353 156.948,240.980 158.417,241.394 158.162 C 241.587 158.043,241.608 158.134,241.449 158.392 C 241.251 158.712,241.337 158.761,241.792 158.586 C 242.126 158.458,242.296 158.457,242.169 158.584 C 241.835 158.917,243.836 160.056,244.294 159.794 C 244.505 159.673,244.567 159.695,244.433 159.843 C 244.125 160.182,245.816 161.322,246.239 161.061 C 246.411 160.955,246.452 161.028,246.331 161.224 C 246.124 161.559,246.868 162.156,247.581 162.226 C 247.758 162.244,247.903 162.389,247.903 162.549 C 247.903 163.079,251.405 166.419,251.754 166.220 C 251.942 166.113,251.993 166.141,251.866 166.281 C 251.525 166.659,252.231 167.797,252.647 167.540 C 252.843 167.419,252.916 167.460,252.810 167.632 C 252.549 168.054,253.689 169.746,254.028 169.438 C 254.176 169.304,254.200 169.363,254.081 169.570 C 253.842 169.988,255.259 173.021,255.555 172.724 C 255.658 172.622,255.734 172.729,255.723 172.962 C 255.679 173.981,255.828 174.541,256.099 174.373 C 256.260 174.274,256.310 174.506,256.209 174.889 C 256.093 175.335,256.151 175.509,256.371 175.373 C 256.587 175.239,256.652 175.399,256.545 175.806 C 256.452 176.161,256.534 176.452,256.726 176.452 C 256.919 176.452,256.999 176.655,256.903 176.903 C 256.808 177.151,256.872 177.442,257.044 177.548 C 257.217 177.655,257.283 178.033,257.190 178.387 C 257.097 178.742,257.163 179.032,257.335 179.032 C 257.721 179.032,257.746 179.470,257.746 186.129 C 257.746 192.788,257.721 193.226,257.335 193.226 C 257.163 193.226,257.097 193.516,257.190 193.871 C 257.283 194.225,257.215 194.605,257.038 194.714 C 256.862 194.822,256.788 195.179,256.873 195.505 C 256.958 195.831,256.879 196.148,256.697 196.209 C 256.515 196.269,256.349 196.770,256.328 197.321 C 256.307 197.873,256.159 198.243,255.998 198.144 C 255.837 198.045,255.787 198.277,255.887 198.660 C 256.003 199.106,255.946 199.280,255.726 199.144 C 255.503 199.006,255.449 199.188,255.572 199.659 C 255.677 200.059,255.678 200.302,255.575 200.199 C 255.297 199.921,253.209 205.195,253.446 205.578 C 253.557 205.759,253.506 205.818,253.332 205.711 C 252.931 205.463,251.527 208.309,251.818 208.781 C 251.958 209.007,251.883 209.038,251.608 208.868 C 251.288 208.670,251.239 208.756,251.414 209.211 C 251.542 209.546,251.546 209.718,251.422 209.594 C 251.298 209.470,250.262 210.926,249.119 212.830 C 247.976 214.733,246.896 216.465,246.719 216.679 C 246.541 216.893,246.492 217.224,246.609 217.413 C 246.726 217.603,246.630 217.718,246.395 217.669 C 246.160 217.621,245.987 217.829,246.010 218.133 C 246.034 218.436,245.889 218.654,245.688 218.616 C 245.487 218.579,245.342 218.797,245.365 219.100 C 245.389 219.404,245.244 219.622,245.043 219.584 C 244.842 219.547,244.697 219.769,244.722 220.077 C 244.746 220.386,244.653 220.568,244.515 220.483 C 244.225 220.304,243.118 221.883,243.118 222.476 C 243.118 222.695,243.020 222.814,242.901 222.740 C 242.542 222.519,241.242 224.500,241.487 224.895 C 241.621 225.114,241.569 225.172,241.356 225.041 C 240.941 224.784,240.235 225.922,240.576 226.300 C 240.703 226.440,240.632 226.455,240.419 226.333 C 239.977 226.079,239.254 227.198,239.608 227.590 C 239.735 227.730,239.665 227.745,239.452 227.623 C 239.009 227.369,238.287 228.488,238.640 228.880 C 238.767 229.021,238.706 229.041,238.504 228.926 C 238.021 228.650,237.297 229.541,237.603 230.036 C 237.748 230.272,237.705 230.338,237.491 230.206 C 237.068 229.944,236.074 231.263,236.354 231.715 C 236.462 231.891,236.397 231.940,236.208 231.823 C 235.785 231.562,233.815 234.164,234.093 234.615 C 234.203 234.793,234.136 234.841,233.943 234.722 C 233.520 234.460,232.526 235.779,232.805 236.231 C 232.914 236.407,232.845 236.454,232.653 236.335 C 232.229 236.073,231.235 237.392,231.515 237.844 C 231.624 238.020,231.557 238.068,231.366 237.950 C 230.932 237.682,229.611 239.310,229.893 239.765 C 230.008 239.951,229.944 240.004,229.749 239.883 C 229.326 239.622,228.332 240.940,228.612 241.393 C 228.720 241.569,228.653 241.616,228.462 241.498 C 228.045 241.240,226.693 243.026,227.026 243.395 C 227.153 243.536,227.093 243.558,226.891 243.442 C 226.462 243.197,225.791 243.910,225.669 244.742 C 225.622 245.061,225.404 245.323,225.185 245.323 C 224.648 245.323,223.842 246.466,224.092 246.872 C 224.203 247.050,224.137 247.100,223.947 246.982 C 223.513 246.714,222.192 248.342,222.474 248.797 C 222.587 248.981,222.526 249.036,222.337 248.920 C 221.914 248.659,219.944 251.261,220.222 251.711 C 220.332 251.889,220.262 251.936,220.066 251.815 C 219.650 251.558,218.945 252.696,219.286 253.074 C 219.412 253.214,219.342 253.229,219.129 253.107 C 218.686 252.853,217.964 253.972,218.318 254.364 C 218.445 254.505,218.374 254.520,218.161 254.398 C 217.725 254.147,216.988 255.267,217.350 255.630 C 217.477 255.756,217.413 255.812,217.208 255.753 C 216.734 255.616,214.750 258.306,215.013 258.730 C 215.121 258.905,215.017 259.008,214.782 258.960 C 214.546 258.911,214.375 259.122,214.399 259.432 C 214.423 259.741,214.332 259.924,214.196 259.841 C 213.824 259.610,212.200 262.226,212.457 262.642 C 212.586 262.850,212.536 262.913,212.339 262.792 C 211.915 262.530,210.558 264.760,210.853 265.236 C 210.971 265.427,210.929 265.498,210.760 265.393 C 210.344 265.136,207.322 270.227,207.612 270.696 C 207.738 270.900,207.703 270.981,207.533 270.876 C 207.118 270.620,205.057 274.409,205.352 274.886 C 205.507 275.136,205.442 275.173,205.156 274.997 C 204.844 274.804,204.786 274.881,204.941 275.286 C 205.058 275.591,205.030 275.763,204.878 275.669 C 204.499 275.435,201.873 281.244,202.144 281.717 C 202.264 281.926,202.239 281.985,202.089 281.849 C 201.745 281.536,200.898 283.497,201.180 283.954 C 201.303 284.152,201.235 284.198,201.018 284.063 C 200.672 283.849,200.518 284.296,200.558 285.400 C 200.566 285.620,200.444 285.720,200.286 285.623 C 200.024 285.460,199.877 286.008,199.913 287.013 C 199.921 287.233,199.774 287.318,199.586 287.202 C 199.366 287.065,199.328 287.206,199.478 287.599 C 199.607 287.933,199.610 288.105,199.487 287.982 C 199.210 287.705,197.085 291.010,197.307 291.370 C 197.395 291.512,197.334 291.589,197.171 291.540 C 196.851 291.445,193.065 295.150,193.065 295.559 C 193.065 295.695,192.919 295.821,192.742 295.838 C 192.029 295.909,191.285 296.505,191.492 296.840 C 191.614 297.036,191.572 297.110,191.401 297.004 C 190.990 296.750,189.278 297.880,189.594 298.196 C 189.729 298.331,189.694 298.400,189.516 298.350 C 188.916 298.181,187.730 298.752,187.948 299.105 C 188.067 299.297,188.029 299.371,187.864 299.269 C 187.700 299.167,186.576 299.564,185.367 300.151 C 184.159 300.738,183.291 301.283,183.440 301.363 C 183.588 301.442,183.532 301.465,183.316 301.412 C 182.824 301.294,180.968 301.924,180.968 302.209 C 180.967 302.325,180.573 302.442,180.090 302.470 C 179.608 302.498,179.163 302.672,179.102 302.855 C 179.041 303.039,178.782 303.110,178.528 303.012 C 178.273 302.914,178.065 302.981,178.065 303.161 C 178.065 303.341,177.774 303.412,177.419 303.319 C 177.065 303.226,176.774 303.308,176.774 303.501 C 176.774 303.693,176.571 303.773,176.323 303.678 C 176.075 303.582,175.780 303.653,175.667 303.835 C 175.555 304.017,175.265 304.089,175.022 303.996 C 174.780 303.903,174.489 303.976,174.377 304.157 C 174.265 304.339,173.967 304.409,173.715 304.312 C 173.463 304.215,173.076 304.248,172.854 304.385 C 172.633 304.522,172.154 304.670,171.790 304.714 C 171.427 304.758,170.621 304.866,170.000 304.952 C 164.110 305.776,156.593 305.806,154.758 305.013 C 154.448 304.879,153.957 304.860,153.669 304.971 C 153.380 305.082,152.947 305.009,152.705 304.808 C 152.464 304.608,152.051 304.526,151.789 304.627 C 151.526 304.728,151.219 304.662,151.107 304.480 C 150.994 304.298,150.704 304.226,150.462 304.319 C 150.219 304.412,149.929 304.339,149.816 304.157 C 149.704 303.976,149.409 303.905,149.161 304.000 C 148.913 304.095,148.710 304.016,148.710 303.823 C 148.710 303.631,148.419 303.549,148.065 303.642 C 147.710 303.735,147.419 303.663,147.419 303.484 C 147.419 303.304,147.202 303.240,146.935 303.342 C 146.669 303.445,146.452 303.372,146.452 303.181 C 146.452 302.990,146.234 302.918,145.968 303.020 C 145.702 303.122,145.484 303.087,145.484 302.942 C 145.484 302.559,142.874 301.593,142.486 301.833 C 142.284 301.958,142.260 301.872,142.422 301.608 C 142.616 301.295,142.538 301.238,142.133 301.393 C 141.828 301.510,141.659 301.477,141.756 301.320 C 141.986 300.948,141.019 300.581,140.535 300.857 C 140.330 300.975,140.269 300.952,140.401 300.806 C 140.741 300.432,139.438 299.592,138.951 299.872 C 138.730 299.999,138.658 299.982,138.793 299.834 C 139.101 299.495,137.409 298.355,136.986 298.617 C 136.815 298.723,136.774 298.649,136.895 298.453 C 137.115 298.097,136.032 297.301,135.734 297.600 C 135.647 297.687,135.392 297.536,135.168 297.266 C 134.943 296.995,134.880 296.774,135.028 296.774 C 135.175 296.774,134.661 296.127,133.885 295.337 C 133.109 294.546,132.330 293.988,132.155 294.096 C 131.979 294.205,131.925 294.149,132.033 293.973 C 132.279 293.576,131.344 292.187,130.982 292.410 C 130.837 292.500,130.738 292.321,130.762 292.013 C 130.787 291.702,130.616 291.491,130.379 291.540 C 130.144 291.589,130.044 291.480,130.156 291.299 C 130.421 290.869,129.540 289.608,129.194 289.921 C 129.048 290.053,129.025 289.993,129.143 289.787 C 129.419 289.304,129.052 288.337,128.680 288.567 C 128.523 288.664,128.490 288.494,128.607 288.190 C 128.741 287.841,128.693 287.714,128.478 287.847 C 128.291 287.963,128.144 287.878,128.152 287.658 C 128.189 286.623,128.037 286.108,127.746 286.288 C 127.563 286.401,127.509 286.272,127.619 285.984 C 127.725 285.709,127.664 285.484,127.484 285.484 C 127.304 285.484,127.239 285.171,127.339 284.788 C 127.475 284.270,127.413 284.159,127.098 284.354 C 126.816 284.529,126.752 284.490,126.907 284.239 C 127.217 283.739,123.827 273.537,123.433 273.781 C 123.264 273.885,123.215 273.827,123.323 273.651 C 123.616 273.178,122.856 270.959,122.480 271.191 C 122.303 271.300,122.247 271.246,122.356 271.071 C 122.607 270.664,121.914 268.362,121.599 268.557 C 121.469 268.637,121.370 268.523,121.378 268.303 C 121.417 267.199,121.264 266.753,120.918 266.966 C 120.700 267.101,120.633 267.056,120.755 266.857 C 121.037 266.401,120.191 264.440,119.846 264.753 C 119.696 264.889,119.666 264.839,119.779 264.641 C 120.106 264.066,118.986 261.503,118.625 262.004 C 118.414 262.298,118.382 262.247,118.518 261.830 C 118.901 260.647,112.293 248.792,111.502 249.245 C 111.297 249.362,111.233 249.343,111.360 249.203 C 111.701 248.825,110.995 247.687,110.579 247.944 C 110.367 248.075,110.314 248.017,110.448 247.800 C 110.744 247.321,107.269 243.727,106.794 244.020 C 106.597 244.142,106.476 244.077,106.524 243.875 C 106.635 243.419,103.857 241.873,103.306 242.084 C 103.085 242.168,102.903 242.129,102.903 241.997 C 102.903 241.865,101.960 241.756,100.806 241.756 C 99.653 241.756,98.710 241.878,98.710 242.026 C 98.710 242.175,98.566 242.207,98.391 242.099 C 97.926 241.812,95.774 242.913,96.020 243.311 C 96.147 243.516,96.071 243.551,95.827 243.400 C 95.401 243.137,92.258 246.212,92.258 246.892 C 92.258 247.093,91.510 248.419,90.597 249.839 C 89.683 251.258,88.933 252.594,88.930 252.808 C 88.927 253.022,88.811 253.127,88.672 253.041 C 88.328 252.829,87.706 254.044,87.995 254.364 C 88.122 254.505,88.064 254.527,87.866 254.414 C 87.431 254.166,86.437 255.196,86.316 256.020 C 86.268 256.346,86.075 256.613,85.887 256.613 C 85.295 256.613,78.023 264.589,78.199 265.046 C 78.290 265.283,78.188 265.442,77.972 265.399 C 77.757 265.357,77.601 265.575,77.625 265.884 C 77.649 266.192,77.556 266.375,77.417 266.289 C 77.085 266.083,75.733 268.976,75.978 269.371 C 76.082 269.539,75.996 269.677,75.788 269.677 C 75.571 269.677,75.479 269.946,75.573 270.307 C 75.664 270.653,75.615 270.980,75.465 271.033 C 75.315 271.086,75.305 271.957,75.443 272.968 C 75.581 273.980,75.574 274.733,75.428 274.643 C 75.281 274.552,75.161 274.777,75.161 275.142 C 75.161 275.508,75.293 275.806,75.454 275.806 C 75.614 275.806,75.664 276.119,75.564 276.502 C 75.429 277.020,75.490 277.131,75.805 276.936 C 76.084 276.764,76.151 276.800,76.001 277.043 C 75.731 277.480,76.732 279.742,77.096 279.517 C 77.234 279.432,77.327 279.614,77.302 279.923 C 77.278 280.233,77.449 280.444,77.685 280.395 C 77.923 280.346,78.016 280.462,77.895 280.659 C 77.622 281.100,81.774 285.299,82.214 285.027 C 82.391 284.918,82.641 284.998,82.769 285.206 C 82.929 285.464,82.860 285.497,82.550 285.311 C 82.163 285.077,82.162 285.118,82.543 285.587 C 82.788 285.890,83.221 286.099,83.504 286.053 C 83.786 286.006,84.021 286.185,84.026 286.452 C 84.030 286.718,84.277 286.937,84.575 286.940 C 84.872 286.942,85.235 287.074,85.380 287.233 C 85.534 287.401,85.441 287.421,85.161 287.282 C 84.895 287.149,85.040 287.340,85.484 287.707 C 86.255 288.344,86.646 288.509,87.177 288.425 C 87.310 288.404,87.383 288.569,87.339 288.790 C 87.294 289.012,87.506 289.174,87.810 289.151 C 88.113 289.127,88.331 289.273,88.294 289.473 C 88.256 289.674,88.478 289.819,88.787 289.794 C 89.095 289.770,89.273 289.872,89.181 290.020 C 88.965 290.370,90.165 291.018,90.468 290.714 C 90.595 290.588,90.651 290.638,90.591 290.827 C 90.532 291.016,90.956 291.644,91.532 292.223 C 92.796 293.492,92.830 293.999,91.759 295.576 C 91.307 296.241,91.039 296.951,91.163 297.152 C 91.292 297.361,91.247 297.431,91.059 297.314 C 90.481 296.957,86.864 302.910,87.265 303.559 C 87.371 303.731,87.288 303.871,87.081 303.871 C 86.874 303.871,86.787 304.084,86.887 304.345 C 86.987 304.605,86.930 304.904,86.760 305.009 C 86.337 305.270,86.367 308.065,86.793 308.065 C 86.981 308.065,87.043 308.213,86.932 308.393 C 86.650 308.848,87.403 311.016,87.764 310.793 C 87.925 310.693,87.962 310.861,87.845 311.165 C 87.723 311.484,87.763 311.638,87.941 311.528 C 88.110 311.423,88.250 311.581,88.251 311.879 C 88.255 312.584,91.600 317.788,91.922 317.589 C 92.299 317.356,92.137 318.456,91.673 319.281 C 91.446 319.684,91.362 320.178,91.487 320.379 C 91.616 320.589,91.570 320.656,91.377 320.538 C 90.881 320.231,90.409 322.716,90.470 325.323 C 90.532 327.953,90.896 329.760,91.313 329.502 C 91.474 329.403,91.510 329.570,91.393 329.875 C 91.238 330.280,91.295 330.358,91.608 330.164 C 91.895 329.987,91.958 330.025,91.801 330.279 C 91.494 330.776,92.857 332.970,93.303 332.694 C 93.493 332.577,93.559 332.625,93.450 332.801 C 93.171 333.253,94.165 334.572,94.588 334.310 C 94.783 334.190,94.847 334.242,94.732 334.428 C 94.441 334.898,95.775 336.506,96.236 336.242 C 96.443 336.123,96.508 336.141,96.380 336.283 C 96.034 336.666,97.402 338.433,97.847 338.178 C 98.055 338.059,98.123 338.075,97.997 338.215 C 97.871 338.355,98.003 338.922,98.291 339.476 C 98.848 340.547,99.072 343.548,98.595 343.548 C 98.439 343.548,98.388 343.839,98.481 344.194 C 98.573 344.548,98.544 344.839,98.416 344.839 C 98.072 344.839,97.028 348.338,97.260 348.712 C 97.368 348.888,97.287 349.032,97.078 349.032 C 96.858 349.032,96.770 349.302,96.868 349.677 C 96.960 350.032,96.895 350.409,96.722 350.516 C 96.549 350.623,96.493 350.932,96.596 351.203 C 96.700 351.473,96.650 351.858,96.486 352.057 C 96.130 352.487,96.122 352.641,96.105 358.871 C 96.088 365.571,96.084 365.484,96.416 365.484 C 96.580 365.484,96.638 365.774,96.545 366.129 C 96.447 366.504,96.535 366.774,96.756 366.774 C 96.964 366.774,97.047 366.916,96.940 367.090 C 96.646 367.565,97.465 370.010,97.840 369.778 C 98.023 369.665,98.065 369.739,97.935 369.948 C 97.474 370.695,101.020 376.656,101.683 376.247 C 101.877 376.127,101.946 376.174,101.837 376.351 C 101.636 376.675,103.761 378.963,104.077 378.763 C 104.171 378.704,104.344 378.764,104.462 378.896 C 104.581 379.028,104.460 379.029,104.194 378.898 C 103.927 378.767,104.051 378.961,104.469 379.329 C 104.887 379.696,105.362 379.914,105.525 379.813 C 105.689 379.712,105.783 379.814,105.734 380.040 C 105.625 380.543,110.195 382.945,111.394 383.014 C 111.869 383.042,112.258 383.190,112.258 383.344 C 112.258 383.498,112.548 383.548,112.903 383.455 C 113.258 383.362,113.548 383.433,113.548 383.613 C 113.548 383.793,113.761 383.858,114.022 383.758 C 114.282 383.658,114.589 383.728,114.703 383.913 C 114.818 384.098,115.185 384.178,115.520 384.091 C 115.855 384.003,116.217 384.075,116.325 384.250 C 116.433 384.425,116.860 384.484,117.273 384.380 C 117.687 384.276,118.113 384.333,118.220 384.507 C 118.327 384.680,118.953 384.816,119.611 384.809 C 120.268 384.802,121.371 384.896,122.060 385.019 C 122.881 385.165,123.244 385.129,123.111 384.914 C 122.974 384.693,123.353 384.686,124.270 384.892 C 126.093 385.301,137.233 384.976,142.419 384.361 C 143.129 384.277,144.363 384.130,145.161 384.034 C 145.960 383.938,147.077 383.862,147.643 383.864 C 148.210 383.866,148.760 383.728,148.865 383.557 C 148.971 383.387,149.470 383.329,149.973 383.430 C 150.491 383.534,150.985 383.459,151.110 383.257 C 151.231 383.061,151.668 382.986,152.081 383.089 C 152.495 383.193,152.930 383.121,153.049 382.928 C 153.168 382.736,153.604 382.663,154.017 382.767 C 154.430 382.871,154.866 382.798,154.985 382.606 C 155.104 382.413,155.539 382.341,155.952 382.444 C 156.366 382.548,156.801 382.475,156.920 382.283 C 157.039 382.091,157.474 382.018,157.888 382.122 C 158.301 382.225,158.732 382.160,158.846 381.976 C 158.960 381.792,159.268 381.724,159.531 381.824 C 159.793 381.925,160.201 381.848,160.437 381.652 C 160.673 381.456,160.955 381.385,161.064 381.494 C 161.173 381.603,161.523 381.581,161.841 381.444 C 162.159 381.306,162.746 381.226,163.145 381.265 C 163.544 381.305,163.871 381.195,163.871 381.021 C 163.871 380.848,164.145 380.777,164.480 380.865 C 164.815 380.952,165.178 380.880,165.286 380.704 C 165.395 380.527,165.758 380.455,166.093 380.542 C 166.428 380.630,166.790 380.557,166.899 380.381 C 167.008 380.205,167.388 380.136,167.742 380.229 C 168.119 380.328,168.387 380.239,168.387 380.016 C 168.387 379.786,168.634 379.712,169.005 379.830 C 169.345 379.938,169.708 379.889,169.812 379.721 C 169.916 379.553,170.291 379.491,170.645 379.584 C 171.022 379.683,171.290 379.594,171.290 379.371 C 171.290 379.141,171.537 379.067,171.908 379.185 C 172.248 379.293,172.611 379.244,172.715 379.076 C 172.819 378.908,173.194 378.846,173.549 378.939 C 173.903 379.032,174.194 378.959,174.194 378.778 C 174.194 378.596,174.484 378.523,174.839 378.616 C 175.194 378.709,175.484 378.636,175.484 378.455 C 175.484 378.273,175.774 378.201,176.129 378.294 C 176.484 378.386,176.774 378.314,176.774 378.132 C 176.774 377.951,177.048 377.874,177.383 377.962 C 177.718 378.049,178.085 377.969,178.200 377.784 C 178.314 377.599,178.606 377.524,178.849 377.617 C 179.091 377.710,179.381 377.637,179.494 377.455 C 179.606 377.274,179.911 377.207,180.172 377.307 C 180.432 377.407,180.645 377.341,180.645 377.161 C 180.645 376.982,180.935 376.911,181.290 377.003 C 181.645 377.096,181.935 377.024,181.935 376.842 C 181.935 376.661,182.226 376.588,182.581 376.681 C 182.935 376.774,183.226 376.701,183.226 376.519 C 183.226 376.338,183.516 376.265,183.871 376.358 C 184.226 376.451,184.516 376.378,184.516 376.197 C 184.516 376.015,184.806 375.943,185.161 376.036 C 185.516 376.128,185.807 376.078,185.807 375.925 C 185.807 375.771,186.278 375.612,186.853 375.571 C 187.428 375.531,187.943 375.365,187.997 375.202 C 188.051 375.040,188.379 374.981,188.725 375.072 C 189.071 375.162,189.355 375.079,189.355 374.886 C 189.355 374.694,189.558 374.614,189.806 374.710 C 190.054 374.805,190.345 374.741,190.452 374.568 C 190.558 374.396,190.936 374.330,191.291 374.423 C 191.645 374.515,191.935 374.443,191.935 374.261 C 191.935 374.080,192.226 374.007,192.581 374.100 C 192.935 374.193,193.226 374.120,193.226 373.939 C 193.226 373.757,193.516 373.685,193.871 373.778 C 194.226 373.870,194.516 373.798,194.516 373.616 C 194.516 373.435,194.806 373.362,195.161 373.455 C 195.516 373.548,195.807 373.498,195.807 373.344 C 195.807 373.190,196.278 373.031,196.853 372.991 C 197.428 372.950,197.943 372.784,197.997 372.622 C 198.051 372.459,198.379 372.401,198.725 372.491 C 199.071 372.582,199.355 372.530,199.356 372.376 C 199.356 372.223,199.821 372.080,200.390 372.059 C 200.958 372.038,201.473 371.872,201.533 371.690 C 201.594 371.508,201.927 371.433,202.274 371.523 C 202.620 371.614,202.903 371.531,202.903 371.338 C 202.903 371.146,203.121 371.072,203.387 371.174 C 203.653 371.276,203.871 371.235,203.872 371.083 C 203.872 370.931,204.337 370.789,204.906 370.769 C 205.474 370.748,205.991 370.575,206.055 370.384 C 206.119 370.193,206.379 370.116,206.634 370.214 C 206.888 370.312,207.097 370.245,207.097 370.065 C 207.097 369.885,207.387 369.814,207.742 369.907 C 208.097 369.999,208.387 369.918,208.387 369.725 C 208.387 369.533,208.605 369.459,208.871 369.561 C 209.137 369.663,209.355 369.599,209.355 369.420 C 209.355 369.240,209.668 369.175,210.050 369.275 C 210.433 369.375,210.665 369.325,210.566 369.164 C 210.467 369.003,210.837 368.854,211.388 368.833 C 211.940 368.813,212.443 368.639,212.507 368.448 C 212.570 368.257,212.831 368.181,213.085 368.278 C 213.340 368.376,213.549 368.332,213.549 368.180 C 213.550 368.028,214.015 367.886,214.583 367.866 C 215.152 367.845,215.669 367.671,215.732 367.480 C 215.796 367.289,216.056 367.213,216.311 367.311 C 216.566 367.408,216.774 367.341,216.774 367.161 C 216.774 366.982,217.087 366.916,217.470 367.016 C 217.852 367.117,218.084 367.067,217.985 366.906 C 217.886 366.745,218.256 366.596,218.808 366.575 C 219.359 366.554,219.862 366.381,219.926 366.190 C 219.990 365.999,220.250 365.923,220.505 366.020 C 220.759 366.118,220.968 366.051,220.968 365.871 C 220.968 365.691,221.281 365.626,221.663 365.726 C 222.046 365.826,222.278 365.776,222.179 365.615 C 222.080 365.454,222.450 365.306,223.001 365.285 C 223.553 365.264,224.056 365.091,224.119 364.900 C 224.183 364.709,224.444 364.632,224.698 364.730 C 224.953 364.828,225.161 364.761,225.161 364.581 C 225.161 364.401,225.474 364.336,225.857 364.436 C 226.375 364.571,226.486 364.510,226.291 364.195 C 226.118 363.915,226.155 363.849,226.399 364.000 C 226.822 364.261,230.323 363.239,230.323 362.854 C 230.323 362.715,230.540 362.684,230.806 362.787 C 231.073 362.889,231.290 362.816,231.290 362.625 C 231.290 362.434,231.508 362.362,231.774 362.464 C 232.040 362.566,232.258 362.494,232.258 362.303 C 232.258 362.112,232.476 362.039,232.742 362.141 C 233.008 362.244,233.226 362.180,233.226 362.000 C 233.226 361.820,233.539 361.755,233.921 361.855 C 234.367 361.972,234.541 361.914,234.405 361.694 C 234.269 361.474,234.443 361.416,234.889 361.533 C 235.362 361.656,235.512 361.596,235.356 361.345 C 235.208 361.105,235.304 361.043,235.628 361.167 C 235.904 361.273,236.129 361.203,236.129 361.012 C 236.129 360.822,236.347 360.749,236.613 360.851 C 236.879 360.953,237.097 360.881,237.097 360.690 C 237.097 360.499,237.315 360.426,237.581 360.529 C 237.847 360.631,238.065 360.545,238.065 360.338 C 238.065 360.131,238.192 360.040,238.347 360.136 C 238.723 360.369,242.029 359.234,241.760 358.964 C 241.644 358.848,241.876 358.839,242.277 358.944 C 242.823 359.087,242.939 359.029,242.743 358.711 C 242.585 358.455,242.608 358.366,242.800 358.485 C 243.273 358.777,245.492 358.017,245.261 357.642 C 245.151 357.465,245.213 357.413,245.397 357.527 C 245.792 357.771,247.742 357.149,247.742 356.778 C 247.742 356.638,247.923 356.530,248.145 356.538 C 249.250 356.579,249.699 356.425,249.485 356.079 C 249.348 355.856,249.396 355.794,249.607 355.924 C 250.152 356.261,254.291 354.462,253.795 354.104 C 253.507 353.896,253.551 353.863,253.945 353.989 C 254.611 354.203,256.565 353.447,256.225 353.107 C 256.094 352.976,256.261 352.974,256.595 353.102 C 257.050 353.277,257.136 353.228,256.939 352.908 C 256.772 352.639,256.800 352.558,257.014 352.691 C 257.441 352.955,260.080 351.800,259.766 351.487 C 259.640 351.360,259.809 351.361,260.143 351.489 C 260.599 351.664,260.685 351.616,260.487 351.295 C 260.321 351.027,260.348 350.946,260.560 351.076 C 261.038 351.372,265.512 349.338,265.264 348.938 C 265.153 348.758,265.219 348.707,265.412 348.826 C 265.891 349.123,267.788 348.167,268.419 347.312 C 268.985 346.543,269.660 334.289,269.117 334.625 C 268.965 334.719,269.005 332.809,269.205 330.382 C 269.406 327.954,269.596 325.532,269.629 325.000 C 269.741 323.172,269.900 322.096,270.140 321.548 C 270.272 321.246,270.282 320.840,270.162 320.646 C 270.042 320.453,270.118 320.085,270.331 319.829 C 270.543 319.573,270.626 319.125,270.514 318.834 C 270.403 318.543,270.475 318.108,270.676 317.866 C 270.876 317.625,270.956 317.208,270.853 316.940 C 270.750 316.671,270.823 316.452,271.015 316.452 C 271.208 316.452,271.290 316.161,271.197 315.807 C 271.104 315.452,271.172 315.073,271.349 314.964 C 271.525 314.855,271.597 314.492,271.510 314.157 C 271.422 313.822,271.499 313.548,271.681 313.548 C 271.862 313.548,271.937 313.265,271.846 312.919 C 271.755 312.572,271.830 312.239,272.013 312.179 C 272.195 312.118,272.361 311.603,272.382 311.035 C 272.402 310.466,272.505 310.001,272.610 310.001 C 272.948 309.999,273.586 307.420,273.350 307.009 C 273.223 306.789,273.248 306.728,273.407 306.872 C 273.752 307.187,274.912 303.928,274.622 303.458 C 274.503 303.267,274.574 303.224,274.789 303.356 C 275.135 303.570,275.288 303.123,275.249 302.020 C 275.241 301.800,275.363 301.699,275.520 301.797 C 275.786 301.961,275.934 301.394,275.890 300.382 C 275.879 300.148,275.953 300.039,276.052 300.138 C 276.334 300.420,277.415 297.784,277.223 297.284 C 277.130 297.039,277.206 296.745,277.394 296.629 C 277.604 296.499,277.668 296.640,277.560 296.999 C 277.464 297.319,277.979 296.450,278.704 295.067 C 279.428 293.685,279.921 292.378,279.798 292.164 C 279.675 291.950,279.689 291.878,279.831 292.006 C 279.972 292.133,281.197 290.391,282.554 288.135 C 283.911 285.878,285.409 283.464,285.883 282.769 C 286.358 282.074,286.669 281.381,286.575 281.228 C 286.481 281.076,286.596 280.992,286.831 281.040 C 287.066 281.089,287.239 280.881,287.215 280.577 C 287.192 280.274,287.289 280.056,287.431 280.093 C 287.841 280.201,291.295 275.430,291.070 275.066 C 290.959 274.886,291.026 274.836,291.218 274.956 C 291.642 275.217,292.636 273.898,292.356 273.446 C 292.247 273.270,292.316 273.224,292.509 273.343 C 292.932 273.604,293.926 272.285,293.646 271.833 C 293.538 271.657,293.605 271.610,293.796 271.728 C 294.213 271.986,295.565 270.200,295.232 269.831 C 295.105 269.690,295.174 269.674,295.387 269.796 C 295.787 270.026,297.258 268.326,297.258 267.634 C 297.258 267.427,297.425 267.258,297.629 267.258 C 297.833 267.258,301.172 263.939,305.048 259.881 C 316.673 247.716,319.679 244.457,319.516 244.194 C 319.431 244.057,319.614 243.746,319.923 243.504 C 320.437 243.101,320.447 243.118,320.043 243.710 C 319.800 244.065,320.269 243.655,321.084 242.800 C 321.899 241.944,322.533 241.074,322.492 240.864 C 322.452 240.655,322.582 240.514,322.780 240.550 C 323.263 240.639,324.538 239.253,324.663 238.503 C 324.718 238.173,324.917 237.937,325.105 237.978 C 325.584 238.082,326.810 236.448,326.559 236.041 C 326.444 235.856,326.507 235.803,326.699 235.921 C 327.132 236.189,328.453 234.561,328.172 234.106 C 328.056 233.920,328.120 233.867,328.315 233.988 C 328.738 234.249,329.732 232.931,329.453 232.478 C 329.344 232.302,329.413 232.256,329.606 232.375 C 330.029 232.637,331.023 231.318,330.743 230.865 C 330.634 230.689,330.706 230.645,330.902 230.766 C 331.318 231.023,332.023 229.885,331.682 229.507 C 331.555 229.366,331.617 229.346,331.818 229.461 C 332.302 229.737,333.026 228.847,332.720 228.351 C 332.573 228.113,332.618 228.049,332.837 228.185 C 333.253 228.442,333.959 227.304,333.618 226.926 C 333.491 226.786,333.545 226.761,333.739 226.871 C 334.196 227.131,335.583 225.260,335.288 224.782 C 335.159 224.575,335.205 224.505,335.392 224.620 C 335.821 224.885,338.801 220.409,338.510 219.937 C 338.387 219.740,338.427 219.664,338.598 219.769 C 339.036 220.040,341.718 215.599,341.424 215.089 C 341.294 214.862,341.307 214.787,341.455 214.920 C 341.820 215.252,343.321 212.673,343.033 212.208 C 342.881 211.960,342.947 211.924,343.231 212.100 C 343.544 212.293,343.601 212.216,343.446 211.810 C 343.329 211.506,343.351 211.330,343.496 211.419 C 343.860 211.644,345.223 208.749,344.956 208.316 C 344.837 208.123,344.886 208.056,345.066 208.167 C 345.463 208.412,346.519 205.865,346.230 205.359 C 346.118 205.161,346.150 205.113,346.303 205.252 C 346.631 205.551,348.483 201.061,348.212 200.623 C 348.110 200.458,348.196 200.323,348.403 200.323 C 348.610 200.323,348.693 200.098,348.587 199.822 C 348.462 199.497,348.525 199.402,348.764 199.550 C 349.016 199.705,349.076 199.556,348.952 199.082 C 348.835 198.636,348.893 198.462,349.113 198.598 C 349.333 198.734,349.391 198.561,349.274 198.115 C 349.158 197.668,349.216 197.495,349.436 197.631 C 349.656 197.767,349.714 197.593,349.597 197.147 C 349.497 196.765,349.562 196.452,349.742 196.452 C 349.922 196.452,349.985 196.234,349.883 195.968 C 349.781 195.702,349.855 195.484,350.048 195.484 C 350.240 195.484,350.322 195.194,350.229 194.839 C 350.136 194.484,350.209 194.194,350.390 194.194 C 350.572 194.194,350.644 193.903,350.552 193.548 C 350.459 193.194,350.530 192.903,350.710 192.903 C 350.890 192.903,350.955 192.690,350.855 192.430 C 350.755 192.169,350.825 191.863,351.010 191.748 C 351.195 191.634,351.275 191.266,351.187 190.931 C 351.100 190.597,351.177 190.323,351.358 190.323 C 351.540 190.323,351.612 190.032,351.520 189.678 C 351.427 189.323,351.494 188.944,351.669 188.836 C 351.844 188.728,351.903 188.301,351.799 187.888 C 351.695 187.474,351.768 187.039,351.960 186.920 C 352.153 186.801,352.225 186.366,352.122 185.952 C 352.018 185.539,352.078 185.111,352.255 185.002 C 352.432 184.892,352.574 184.339,352.569 183.772 C 352.565 183.206,352.646 181.726,352.750 180.484 C 353.003 177.451,352.995 168.521,352.737 165.323 C 352.623 163.903,352.537 162.204,352.546 161.546 C 352.556 160.888,352.427 160.266,352.260 160.163 C 352.093 160.059,352.039 159.563,352.140 159.059 C 352.243 158.541,352.168 158.047,351.967 157.923 C 351.771 157.801,351.695 157.364,351.799 156.951 C 351.903 156.538,351.830 156.102,351.638 155.983 C 351.445 155.864,351.373 155.429,351.477 155.015 C 351.580 154.602,351.522 154.175,351.347 154.067 C 351.172 153.959,351.100 153.597,351.187 153.262 C 351.275 152.927,351.202 152.564,351.026 152.455 C 350.850 152.347,350.777 151.984,350.865 151.649 C 350.952 151.314,350.872 150.947,350.687 150.833 C 350.502 150.718,350.427 150.426,350.520 150.184 C 350.613 149.941,350.532 149.645,350.339 149.526 C 350.147 149.408,350.073 149.175,350.175 149.010 C 350.277 148.845,350.253 148.535,350.120 148.321 C 349.988 148.107,349.832 147.490,349.773 146.950 C 349.714 146.410,349.539 145.924,349.384 145.872 C 349.228 145.819,349.175 145.492,349.265 145.146 C 349.356 144.799,349.273 144.516,349.080 144.516 C 348.887 144.516,348.813 144.298,348.916 144.032 C 349.018 143.766,348.954 143.548,348.774 143.548 C 348.595 143.548,348.529 143.235,348.629 142.853 C 348.765 142.335,348.703 142.224,348.388 142.419 C 348.109 142.591,348.043 142.555,348.193 142.311 C 348.480 141.847,347.406 138.357,347.046 138.580 C 346.901 138.670,346.868 138.518,346.974 138.243 C 347.079 137.967,347.021 137.742,346.845 137.742 C 346.668 137.742,346.530 137.560,346.538 137.339 C 346.576 136.333,346.428 135.783,346.165 135.945 C 346.008 136.043,345.886 135.942,345.894 135.722 C 345.933 134.619,345.780 134.172,345.434 134.386 C 345.218 134.519,345.149 134.475,345.269 134.280 C 345.575 133.786,344.837 131.899,344.435 132.147 C 344.231 132.273,344.189 132.203,344.331 131.974 C 344.659 131.443,340.703 123.474,340.251 123.754 C 340.043 123.883,339.993 123.821,340.128 123.602 C 340.431 123.111,337.770 118.654,337.334 118.924 C 337.142 119.043,337.093 118.977,337.220 118.771 C 337.514 118.296,335.826 115.756,335.395 116.023 C 335.205 116.140,335.159 116.072,335.288 115.863 C 335.583 115.385,334.196 113.514,333.739 113.774 C 333.545 113.884,333.491 113.859,333.618 113.719 C 333.959 113.341,333.253 112.203,332.837 112.460 C 332.639 112.583,332.571 112.534,332.684 112.351 C 332.959 111.906,330.655 108.988,330.234 109.249 C 330.050 109.362,329.987 109.315,330.092 109.144 C 330.338 108.747,328.911 106.940,328.337 106.921 C 328.098 106.913,327.944 106.719,327.993 106.491 C 328.103 105.978,322.026 99.906,321.641 100.144 C 321.488 100.238,321.166 100.063,320.924 99.755 C 320.521 99.240,320.538 99.230,321.129 99.633 C 321.484 99.874,321.210 99.551,320.520 98.915 C 319.831 98.279,319.151 97.830,319.010 97.917 C 318.870 98.004,318.649 97.905,318.521 97.697 C 318.363 97.443,318.435 97.403,318.740 97.576 C 319.046 97.749,319.025 97.654,318.677 97.282 C 318.392 96.979,317.884 96.691,317.548 96.641 C 317.211 96.592,316.935 96.378,316.935 96.167 C 316.935 95.672,316.091 95.147,315.691 95.394 C 315.522 95.498,315.483 95.423,315.604 95.227 C 315.861 94.812,314.723 94.106,314.346 94.447 C 314.205 94.574,314.190 94.503,314.312 94.290 C 314.566 93.848,313.447 93.125,313.055 93.479 C 312.915 93.606,312.904 93.528,313.032 93.306 C 313.241 92.944,312.875 92.755,312.177 92.865 C 312.044 92.886,311.972 92.722,312.016 92.500 C 312.060 92.278,311.848 92.116,311.545 92.139 C 311.241 92.163,311.024 92.018,311.061 91.817 C 311.098 91.616,310.877 91.472,310.568 91.496 C 310.259 91.520,310.087 91.411,310.184 91.254 C 310.355 90.976,309.849 90.824,309.194 90.956 C 309.016 90.992,308.983 90.910,309.120 90.773 C 309.468 90.424,306.508 88.640,306.034 88.913 C 305.820 89.035,305.755 89.014,305.890 88.866 C 306.024 88.718,305.734 88.333,305.245 88.010 C 304.228 87.340,303.727 87.247,304.063 87.792 C 304.207 88.024,304.151 88.077,303.916 87.931 C 303.708 87.802,303.604 87.591,303.685 87.460 C 303.926 87.069,297.821 84.187,297.187 84.392 C 296.776 84.524,296.731 84.492,297.029 84.278 C 297.521 83.924,294.961 82.790,294.422 83.123 C 294.234 83.239,294.193 83.166,294.324 82.953 C 294.538 82.607,294.091 82.454,292.987 82.493 C 292.767 82.501,292.667 82.379,292.764 82.222 C 292.927 81.959,292.376 81.811,291.371 81.849 C 291.149 81.857,290.968 81.747,290.968 81.604 C 290.968 81.230,283.952 78.944,283.556 79.189 C 283.375 79.301,283.226 79.224,283.226 79.017 C 283.226 78.810,283.008 78.724,282.742 78.826 C 282.476 78.928,282.258 78.854,282.258 78.662 C 282.258 78.469,281.968 78.388,281.613 78.481 C 281.258 78.573,280.968 78.501,280.968 78.319 C 280.968 78.138,280.677 78.065,280.323 78.158 C 279.968 78.251,279.677 78.178,279.677 77.997 C 279.677 77.815,279.387 77.743,279.032 77.835 C 278.677 77.928,278.387 77.856,278.387 77.674 C 278.387 77.493,278.097 77.420,277.742 77.513 C 277.387 77.606,277.097 77.533,277.097 77.352 C 277.097 77.170,276.807 77.097,276.452 77.190 C 276.097 77.283,275.722 77.221,275.618 77.053 C 275.515 76.885,275.151 76.836,274.812 76.944 C 274.442 77.061,274.194 76.988,274.194 76.761 C 274.194 76.517,273.905 76.454,273.387 76.584 C 272.881 76.711,272.581 76.650,272.581 76.420 C 272.581 76.202,272.250 76.117,271.766 76.209 C 271.319 76.295,270.867 76.228,270.764 76.060 C 270.660 75.892,270.237 75.839,269.823 75.943 C 269.410 76.047,268.986 75.992,268.880 75.821 C 268.775 75.651,268.294 75.504,267.812 75.495 C 266.241 75.466,264.688 75.289,264.194 75.083 C 263.927 74.971,263.274 74.870,262.742 74.857 C 262.210 74.844,261.048 74.763,260.161 74.676 C 254.798 74.151,242.840 73.867,239.762 74.192 M309.677 254.614 C 309.677 254.668,309.133 255.212,308.468 255.824 L 307.258 256.935 308.370 255.726 C 309.404 254.600,309.677 254.368,309.677 254.614 M83.226 259.773 C 83.226 259.826,82.609 260.443,81.855 261.144 L 80.484 262.419 81.759 261.048 C 82.945 259.773,83.226 259.529,83.226 259.773 M229.997 391.626 C 229.732 391.796,229.131 391.854,228.660 391.755 C 228.189 391.656,227.708 391.729,227.592 391.918 C 227.475 392.106,227.026 392.172,226.593 392.063 C 226.093 391.938,225.806 392.004,225.806 392.245 C 225.806 392.472,225.558 392.545,225.188 392.428 C 224.849 392.320,224.481 392.377,224.372 392.553 C 224.262 392.730,223.960 392.793,223.699 392.693 C 223.439 392.593,223.226 392.681,223.226 392.888 C 223.226 393.095,223.073 393.169,222.886 393.054 C 222.350 392.723,218.303 394.256,218.788 394.607 C 219.070 394.810,219.019 394.843,218.621 394.715 C 217.917 394.488,214.476 396.126,214.745 396.560 C 214.852 396.733,214.772 396.771,214.567 396.644 C 214.120 396.368,212.804 397.213,213.147 397.556 C 213.279 397.688,213.242 397.766,213.065 397.731 C 212.322 397.581,211.910 397.763,212.129 398.145 C 212.257 398.367,212.247 398.445,212.106 398.318 C 211.728 397.977,210.590 398.682,210.847 399.098 C 210.980 399.313,210.920 399.363,210.695 399.225 C 210.284 398.970,206.690 402.184,206.938 402.585 C 207.021 402.720,206.837 403.028,206.529 403.270 C 206.014 403.674,206.004 403.657,206.415 403.065 C 206.660 402.710,206.328 402.968,205.676 403.639 C 205.016 404.316,204.589 405.019,204.714 405.221 C 204.841 405.426,204.795 405.495,204.607 405.379 C 203.952 404.974,199.418 412.867,199.878 413.612 C 200.000 413.809,199.955 413.881,199.778 413.772 C 199.427 413.555,198.633 415.744,198.904 416.182 C 198.995 416.330,198.901 416.452,198.694 416.452 C 198.487 416.452,198.402 416.669,198.504 416.935 C 198.606 417.202,198.532 417.419,198.339 417.419 C 198.147 417.419,198.065 417.710,198.158 418.065 C 198.251 418.419,198.178 418.710,197.997 418.710 C 197.815 418.710,197.743 419.000,197.835 419.355 C 197.928 419.710,197.856 420.000,197.674 420.000 C 197.493 420.000,197.420 420.290,197.513 420.645 C 197.605 421.000,197.537 421.379,197.361 421.488 C 197.185 421.597,197.120 421.988,197.216 422.358 C 197.313 422.728,197.236 423.219,197.045 423.449 C 196.854 423.679,196.780 424.181,196.880 424.564 C 196.980 424.947,196.900 425.963,196.702 426.822 C 196.449 427.919,196.440 428.811,196.672 429.826 C 196.893 430.793,196.895 431.204,196.677 431.069 C 196.461 430.935,196.436 431.510,196.604 432.772 C 196.743 433.820,196.842 435.216,196.824 435.873 C 196.806 436.531,196.933 437.157,197.106 437.264 C 197.280 437.371,197.337 437.797,197.233 438.210 C 197.129 438.624,197.188 439.050,197.363 439.159 C 197.538 439.267,197.605 439.646,197.513 440.000 C 197.420 440.355,197.493 440.645,197.674 440.645 C 197.856 440.645,197.928 440.935,197.835 441.290 C 197.737 441.665,197.826 441.935,198.046 441.935 C 198.255 441.935,198.336 442.079,198.227 442.255 C 197.936 442.727,199.086 446.134,199.459 445.903 C 199.634 445.795,199.684 445.858,199.570 446.042 C 199.264 446.537,200.002 448.424,200.404 448.176 C 200.594 448.058,200.651 448.117,200.533 448.308 C 200.254 448.759,200.631 449.724,200.998 449.498 C 201.155 449.401,201.187 449.570,201.071 449.875 C 200.927 450.248,200.980 450.353,201.232 450.197 C 201.460 450.056,201.544 450.130,201.447 450.386 C 201.243 450.931,203.030 453.629,203.383 453.308 C 203.531 453.174,203.562 453.222,203.453 453.414 C 203.174 453.905,204.792 456.196,205.228 455.926 C 205.435 455.798,205.492 455.854,205.365 456.060 C 205.136 456.431,207.060 458.854,207.352 458.562 C 207.599 458.315,208.409 459.059,208.221 459.362 C 208.012 459.700,209.975 461.344,210.328 461.126 C 210.478 461.033,210.706 461.127,210.834 461.335 C 210.989 461.585,210.915 461.633,210.614 461.478 C 210.365 461.348,210.437 461.466,210.773 461.740 C 211.110 462.014,211.532 462.147,211.710 462.037 C 211.889 461.926,211.936 461.996,211.815 462.192 C 211.588 462.559,212.658 463.321,213.022 463.053 C 213.134 462.971,213.154 462.999,213.067 463.116 C 212.811 463.459,214.158 464.254,214.567 464.001 C 214.771 463.875,214.852 463.912,214.745 464.083 C 214.498 464.484,218.633 466.537,219.102 466.247 C 219.304 466.123,219.363 466.177,219.241 466.376 C 219.054 466.678,220.419 467.216,221.452 467.248 C 221.629 467.254,221.868 467.387,221.982 467.545 C 222.096 467.702,222.640 467.847,223.191 467.867 C 223.742 467.887,224.192 468.029,224.193 468.183 C 224.193 468.337,224.484 468.386,224.839 468.294 C 225.194 468.201,225.484 468.272,225.484 468.452 C 225.484 468.638,225.824 468.694,226.271 468.582 C 226.703 468.474,227.143 468.524,227.249 468.695 C 227.354 468.865,227.835 469.002,228.317 468.999 C 228.799 468.995,229.686 469.094,230.288 469.217 C 231.024 469.368,231.313 469.330,231.171 469.101 C 231.025 468.865,231.297 468.853,232.052 469.061 C 232.652 469.227,234.794 469.284,236.813 469.187 C 238.832 469.091,240.878 469.011,241.360 469.009 C 241.843 469.006,242.323 468.865,242.429 468.695 C 242.534 468.524,242.974 468.474,243.407 468.582 C 243.907 468.708,244.194 468.641,244.194 468.400 C 244.194 468.173,244.442 468.100,244.812 468.217 C 245.151 468.325,245.519 468.269,245.628 468.092 C 245.738 467.915,246.040 467.852,246.301 467.952 C 246.561 468.052,246.774 467.964,246.774 467.757 C 246.774 467.551,246.916 467.469,247.090 467.577 C 247.497 467.828,250.026 467.078,249.832 466.763 C 249.751 466.632,249.864 466.531,250.084 466.539 C 251.188 466.579,251.635 466.425,251.421 466.079 C 251.283 465.856,251.332 465.794,251.543 465.924 C 252.080 466.256,255.567 464.454,255.076 464.098 C 254.806 463.903,254.864 463.870,255.256 463.997 C 255.754 464.158,258.387 462.779,258.387 462.357 C 258.387 462.282,258.220 462.324,258.015 462.450 C 257.789 462.590,257.730 462.539,257.864 462.322 C 257.986 462.125,258.275 462.037,258.507 462.126 C 258.739 462.215,259.134 462.035,259.384 461.727 C 259.772 461.248,259.772 461.206,259.386 461.440 C 259.076 461.626,259.006 461.593,259.166 461.335 C 259.294 461.127,259.549 461.050,259.732 461.163 C 260.201 461.453,265.264 456.234,264.972 455.761 C 264.840 455.547,264.878 455.470,265.060 455.583 C 265.491 455.849,266.865 453.956,266.578 453.492 C 266.447 453.279,266.495 453.215,266.694 453.337 C 267.131 453.607,268.819 450.761,268.515 450.268 C 268.382 450.053,268.430 449.988,268.630 450.112 C 269.055 450.375,271.088 445.616,270.770 445.102 C 270.623 444.865,270.692 444.830,270.969 445.001 C 271.284 445.195,271.346 445.085,271.210 444.567 C 271.110 444.184,271.175 443.871,271.355 443.871 C 271.535 443.871,271.598 443.653,271.496 443.387 C 271.394 443.121,271.468 442.903,271.661 442.903 C 271.853 442.903,271.935 442.613,271.842 442.258 C 271.749 441.903,271.822 441.613,272.003 441.613 C 272.185 441.613,272.257 441.323,272.165 440.968 C 272.072 440.613,272.144 440.323,272.326 440.323 C 272.507 440.323,272.580 440.032,272.487 439.678 C 272.395 439.323,272.444 438.955,272.597 438.861 C 272.750 438.766,272.877 438.294,272.878 437.812 C 272.880 437.330,272.979 435.847,273.099 434.516 C 273.374 431.471,273.374 429.820,273.099 426.774 C 272.979 425.444,272.880 423.960,272.878 423.478 C 272.877 422.996,272.750 422.524,272.597 422.430 C 272.444 422.335,272.390 421.984,272.478 421.649 C 272.565 421.314,272.493 420.951,272.316 420.843 C 272.140 420.734,272.072 420.354,272.165 420.000 C 272.257 419.645,272.185 419.355,272.003 419.355 C 271.822 419.355,271.749 419.065,271.842 418.710 C 271.935 418.355,271.853 418.065,271.661 418.065 C 271.468 418.065,271.394 417.847,271.496 417.581 C 271.598 417.315,271.526 417.097,271.335 417.097 C 271.144 417.097,271.072 416.879,271.174 416.613 C 271.276 416.347,271.190 416.129,270.983 416.129 C 270.776 416.129,270.686 416.002,270.782 415.847 C 271.108 415.319,269.950 412.469,269.606 412.951 C 269.370 413.280,269.339 413.247,269.478 412.816 C 269.706 412.109,268.392 409.314,267.958 409.582 C 267.783 409.690,267.744 409.612,267.872 409.405 C 268.118 409.007,267.322 407.625,267.019 407.927 C 266.920 408.026,266.860 407.844,266.887 407.522 C 266.914 407.199,266.771 406.966,266.570 407.003 C 266.369 407.041,266.224 406.823,266.248 406.520 C 266.271 406.216,266.098 406.008,265.863 406.056 C 265.628 406.105,265.513 406.020,265.608 405.867 C 265.869 405.444,264.844 404.152,264.444 404.399 C 264.233 404.530,264.187 404.465,264.329 404.236 C 264.628 403.752,261.045 400.002,260.160 399.872 C 259.806 399.820,259.516 399.604,259.516 399.393 C 259.516 398.924,258.680 398.368,258.314 398.594 C 258.168 398.684,258.088 398.565,258.137 398.330 C 258.186 398.095,257.977 397.922,257.674 397.946 C 257.370 397.969,257.153 397.824,257.190 397.623 C 257.227 397.422,257.006 397.278,256.697 397.302 C 256.388 397.327,256.212 397.223,256.305 397.073 C 256.530 396.709,250.441 393.760,250.012 394.025 C 249.828 394.139,249.677 394.062,249.677 393.855 C 249.677 393.649,249.460 393.563,249.194 393.665 C 248.927 393.767,248.710 393.695,248.710 393.504 C 248.710 393.313,248.492 393.240,248.226 393.342 C 247.960 393.445,247.742 393.372,247.742 393.181 C 247.742 392.990,247.524 392.918,247.258 393.020 C 246.992 393.122,246.774 393.048,246.774 392.855 C 246.774 392.663,246.484 392.581,246.129 392.674 C 245.774 392.767,245.484 392.694,245.484 392.513 C 245.484 392.331,245.194 392.259,244.839 392.351 C 244.484 392.444,244.106 392.377,243.997 392.202 C 243.889 392.027,243.475 391.965,243.077 392.065 C 242.679 392.165,242.247 392.140,242.117 392.010 C 241.987 391.880,241.421 391.744,240.859 391.708 C 240.298 391.672,239.275 391.545,238.585 391.426 C 237.755 391.283,237.401 391.322,237.537 391.542 C 237.656 391.735,237.504 391.828,237.178 391.764 C 235.613 391.455,230.419 391.356,229.997 391.626 M263.226 457.843 C 263.226 457.898,262.754 458.370,262.177 458.891 L 261.129 459.839 262.076 458.790 C 262.960 457.813,263.226 457.594,263.226 457.843 " stroke="none" fill="#04040c" fill-rule="evenodd"></path><path id="path1" d="M236.649 74.458 C 236.559 74.603,236.914 74.659,237.436 74.582 C 237.959 74.506,238.387 74.387,238.387 74.318 C 238.387 74.072,236.809 74.199,236.649 74.458 M217.020 153.454 C 217.421 153.531,218.002 153.528,218.310 153.447 C 218.619 153.367,218.290 153.304,217.581 153.307 C 216.871 153.311,216.619 153.377,217.020 153.454 M353.016 173.226 C 353.016 174.734,353.072 175.351,353.139 174.597 C 353.207 173.843,353.207 172.609,353.139 171.855 C 353.072 171.101,353.016 171.718,353.016 173.226 M308.370 255.726 L 307.258 256.935 308.468 255.824 C 309.594 254.789,309.826 254.516,309.579 254.516 C 309.526 254.516,308.981 255.060,308.370 255.726 M81.759 261.048 L 80.484 262.419 81.855 261.144 C 83.130 259.958,83.374 259.677,83.130 259.677 C 83.077 259.677,82.460 260.294,81.759 261.048 M75.187 273.126 C 75.173 273.870,75.276 274.549,75.416 274.636 C 75.557 274.722,75.619 274.259,75.554 273.606 C 75.378 271.821,75.215 271.609,75.187 273.126 M160.573 305.720 C 161.332 305.789,162.493 305.788,163.154 305.718 C 163.814 305.649,163.194 305.593,161.774 305.594 C 160.355 305.596,159.814 305.652,160.573 305.720 M269.028 332.647 C 268.942 333.836,268.988 334.692,269.130 334.548 C 269.273 334.405,269.344 333.432,269.288 332.386 L 269.185 330.484 269.028 332.647 M123.178 384.920 C 123.341 385.083,123.817 385.162,124.237 385.096 C 124.883 384.994,124.837 384.949,123.941 384.800 C 123.300 384.694,123.000 384.741,123.178 384.920 M132.661 385.061 C 132.972 385.142,133.480 385.142,133.790 385.061 C 134.101 384.980,133.847 384.914,133.226 384.914 C 132.605 384.914,132.351 384.980,132.661 385.061 M232.903 391.490 C 234.771 391.730,237.671 391.756,237.532 391.532 C 237.449 391.399,236.192 391.312,234.739 391.339 C 233.286 391.365,232.460 391.433,232.903 391.490 M262.076 458.790 L 261.129 459.839 262.177 458.891 C 262.754 458.370,263.226 457.898,263.226 457.843 C 263.226 457.594,262.960 457.813,262.076 458.790 " stroke="none" fill="#040414" fill-rule="evenodd"></path><path id="path2" d="" stroke="none" fill="#E63946" fill-rule="evenodd"></path><path id="path3" d="" stroke="none" fill="#E63946" fill-rule="evenodd"></path><path id="path4" d="" stroke="none" fill="#E63946" fill-rule="evenodd"></path></g></svg>